<svg viewBox="0 0 200 37" fill="none" xmlns="http://www.w3.org/2000/svg">
<g clip-path="url(#clip0)">
<path d="M55.9602 27.4395V25.6285H48.2754V19.2186H55.4955V17.4314H48.2754V11.8198H55.9602V10.0208H46.25V27.4395H55.9602ZM61.6909 27.4395V17.5387C61.6909 16.109 61.6274 14.5363 61.5003 12.8206H61.5956L71.1151 27.4395H73.4265V10.0208H71.5321V20.0168C71.5163 20.5172 71.5361 21.3493 71.5917 22.5129C71.6473 23.6765 71.6831 24.3656 71.6989 24.58H71.6036L62.1079 10.0208H59.8204V27.4395H61.6909ZM87.9262 27.4395V25.6285H80.2415V19.2186H87.4616V17.4314H80.2415V11.8198H87.9262V10.0208H78.2161V27.4395H87.9262ZM93.8119 27.4395V20.1956H97.4458L101.663 27.4395H104.058L99.3282 19.6118C101.663 18.8016 102.831 17.2448 102.831 14.9414C102.831 13.2972 102.321 12.066 101.3 11.2479C100.279 10.4298 98.7007 10.0208 96.5641 10.0208H91.7865V27.4395H93.8119ZM96.5879 18.4561H93.8119V11.796H96.445C97.9462 11.796 99.0363 12.0502 99.7154 12.5585C100.395 13.0668 100.734 13.8969 100.734 15.0486C100.734 16.1844 100.4 17.0363 99.7333 17.6042C99.0661 18.1721 98.0176 18.4561 96.5879 18.4561ZM114.328 27.6777C115.583 27.6777 116.687 27.6023 117.64 27.4514C118.594 27.3005 119.531 27.0781 120.452 26.7842V18.3131H114.531V20.1241H118.427V25.4855C117.275 25.7635 116.096 25.9025 114.888 25.9025C112.664 25.9025 110.978 25.2949 109.831 24.0796C108.683 22.8644 108.109 21.0812 108.109 18.7301C108.109 16.4902 108.705 14.7388 109.896 13.4759C111.088 12.213 112.744 11.5815 114.864 11.5815C116.318 11.5815 117.831 11.9151 119.404 12.5823L120.19 10.7952C118.586 10.1121 116.854 9.77055 114.996 9.77055C113.161 9.77055 111.56 10.13 110.194 10.8488C108.828 11.5676 107.781 12.6081 107.055 13.9703C106.328 15.3325 105.964 16.9191 105.964 18.7301C105.964 21.5578 106.699 23.7559 108.169 25.3247C109.638 26.8934 111.691 27.6777 114.328 27.6777ZM126.66 27.4395V10.0208H124.634V27.4395H126.66Z" fill="white"/>
<path d="M137.527 27.6777C139.545 27.6777 141.12 27.225 142.252 26.3195C143.383 25.414 143.949 24.1749 143.949 22.6022C143.949 21.4664 143.647 20.5073 143.044 19.7249C142.44 18.9426 141.324 18.1622 139.696 17.3838C138.465 16.796 137.684 16.3889 137.355 16.1626C137.025 15.9362 136.785 15.7019 136.634 15.4596C136.483 15.2174 136.408 14.9334 136.408 14.6078C136.408 14.0835 136.594 13.6586 136.968 13.3329C137.341 13.0073 137.877 12.8444 138.576 12.8444C139.164 12.8444 139.761 12.9199 140.369 13.0708C140.977 13.2217 141.745 13.4878 142.674 13.8691L143.866 10.9977C142.968 10.6085 142.109 10.3067 141.286 10.0922C140.464 9.87778 139.601 9.77055 138.695 9.77055C136.852 9.77055 135.409 10.2114 134.364 11.093C133.32 11.9747 132.798 13.186 132.798 14.7269C132.798 15.545 132.956 16.2599 133.274 16.8715C133.592 17.4831 134.017 18.0192 134.549 18.4799C135.081 18.9406 135.879 19.4211 136.944 19.9215C138.08 20.4616 138.832 20.8548 139.201 21.101C139.571 21.3473 139.851 21.6034 140.041 21.8695C140.232 22.1356 140.327 22.4394 140.327 22.781C140.327 23.3926 140.111 23.8533 139.678 24.163C139.245 24.4728 138.624 24.6277 137.813 24.6277C137.138 24.6277 136.394 24.5205 135.58 24.306C134.765 24.0915 133.771 23.7222 132.595 23.198V26.6293C134.025 27.3283 135.669 27.6777 137.527 27.6777ZM153.552 27.4395L155.899 18.3131C156.003 17.908 156.15 17.2309 156.34 16.2817C156.531 15.3325 156.65 14.6435 156.698 14.2146C156.729 14.5641 156.851 15.2491 157.061 16.2698C157.271 17.2905 157.42 17.9636 157.508 18.2893L159.867 27.4395H164.073L168.505 10.0208H164.871L162.655 19.5284C162.512 20.1002 162.353 20.8489 162.178 21.7742C162.003 22.6995 161.876 23.472 161.797 24.0915C161.71 23.4482 161.582 22.6777 161.416 21.7802C161.249 20.8826 161.11 20.2154 160.999 19.7786L158.461 10.0208H154.97L152.432 19.7786C152.281 20.3028 152.121 21.0395 151.95 21.9887C151.779 22.9378 151.67 23.6388 151.622 24.0915C151.447 22.8048 151.165 21.2837 150.776 19.5284L148.548 10.0208H144.914L149.358 27.4395H153.552ZM172.484 27.4395L173.747 23.2933H180.097L181.36 27.4395H185.34L179.168 9.94927H174.652L168.505 27.4395H172.484ZM179.216 20.1956H174.676C175.915 16.1844 176.666 13.6705 176.928 12.6538C176.992 12.9398 177.097 13.329 177.244 13.8214C177.391 14.3139 178.048 16.4386 179.216 20.1956ZM191.225 27.4395V21.244H192.81C194.97 21.244 196.636 20.7476 197.808 19.7547C198.979 18.7619 199.565 17.3282 199.565 15.4537C199.565 13.6506 199.015 12.2944 197.915 11.3849C196.815 10.4755 195.209 10.0208 193.096 10.0208H187.532V27.4395H191.225ZM192.44 18.2178H191.225V13.047H192.905C193.914 13.047 194.655 13.2535 195.127 13.6665C195.6 14.0796 195.836 14.719 195.836 15.5847C195.836 16.4426 195.554 17.0959 194.99 17.5446C194.426 17.9934 193.576 18.2178 192.44 18.2178Z" fill="#00E676"/>
<mask id="mask0" mask-type="alpha" maskUnits="userSpaceOnUse" x="0" y="0" width="37" height="37">
<path d="M18.7528 0L30.4379 11.5669L21.1152 20.7851L22.8543 22.5341L14.7021 22.5535L14.7026 14.3369L16.4779 16.1224L21.0854 11.5669L18.7475 9.25444L9.39436 18.503L18.7475 27.7515L30.5064 16.1012L28.7971 14.3825L36.9493 14.3631L36.9488 22.5797L35.1435 20.7644L18.7475 37L0.0412598 18.503L18.7528 0Z" fill="white"/>
</mask>
<g mask="url(#mask0)">
<path d="M18.7528 0L30.4379 11.5669L21.1152 20.7851L22.8543 22.5341L14.7021 22.5535L14.7026 14.3369L16.4779 16.1224L21.0854 11.5669L18.7475 9.25444L9.39436 18.503L18.7475 27.7515L30.5064 16.1012L28.7971 14.3825L36.9493 14.3631L36.9488 22.5797L35.1435 20.7644L18.7475 37L0.0412598 18.503L18.7528 0Z" fill="#00E676"/>
</g>
</g>
<defs>
<clipPath id="clip0">
<rect width="199.8" height="37" fill="white"/>
</clipPath>
</defs>
</svg>
